<svg width="11" height="12" viewBox="0 0 11 12" fill="none" xmlns="http://www.w3.org/2000/svg">
<path d="M3.64286 0.5625C3.64286 0.250781 3.38642 0 3.06767 0C2.74892 0 2.49248 0.250781 2.49248 0.5625V1.5H1.53383C0.687829 1.5 0 2.17266 0 3V3.375V4.5V10.5C0 11.3273 0.687829 12 1.53383 12H9.20301C10.049 12 10.7368 11.3273 10.7368 10.5V4.5V3.375V3C10.7368 2.17266 10.049 1.5 9.20301 1.5H8.24436V0.5625C8.24436 0.250781 7.98792 0 7.66917 0C7.35042 0 7.09398 0.250781 7.09398 0.5625V1.5H3.64286V0.5625ZM1.15038 4.5H9.58647V10.5C9.58647 10.7063 9.41391 10.875 9.20301 10.875H1.53383C1.32293 10.875 1.15038 10.7063 1.15038 10.5V4.5Z" fill="white"/>
</svg>
