<svg width="18" height="19" viewBox="0 0 18 19" fill="none" xmlns="http://www.w3.org/2000/svg">
<path d="M6.08036 0.890625C6.08036 0.39707 5.67433 0 5.16964 0C4.66496 0 4.25893 0.39707 4.25893 0.890625V2.375H2.74107C1.40156 2.375 0.3125 3.44004 0.3125 4.75V5.34375V7.125V16.625C0.3125 17.935 1.40156 19 2.74107 19H14.8839C16.2234 19 17.3125 17.935 17.3125 16.625V7.125V5.34375V4.75C17.3125 3.44004 16.2234 2.375 14.8839 2.375H13.3661V0.890625C13.3661 0.39707 12.96 0 12.4554 0C11.9507 0 11.5446 0.39707 11.5446 0.890625V2.375H6.08036V0.890625ZM2.13393 7.125H15.4911V16.625C15.4911 16.9516 15.2179 17.2188 14.8839 17.2188H2.74107C2.40714 17.2188 2.13393 16.9516 2.13393 16.625V7.125Z" fill="#191A1C"/>
</svg>
